<svg xmlns="http://www.w3.org/2000/svg" version="1.1" xmlns:xlink="http://www.w3.org/1999/xlink" xmlns:svgjs="http://svgjs.dev/svgjs" width="1387.16" height="765.12"><svg id="SvgjsSvg1020" data-name="Warstwa 2" xmlns="http://www.w3.org/2000/svg" viewBox="0 0 1387.16 765.12">
  <defs>
    <style>
      .cls-1 {
        fill: #090a0c;
        stroke-width: 0px;
      }
    </style>
  </defs>
  <g id="SvgjsG1019" data-name="Warstwa 1">
    <path class="cls-1" d="m1165.92,341.65c-.73.78-14.65,15.52-32.9,17.49-4.81.52-9.92.15-15.17-1.59-17.49-5.82-33.14-32.56-17.41-48.58,3.31-3.37,11.23-6.41,16.79-3.05l52.45,31.68-3.76,4.05Zm149.22,50.39c-6.87.39-17.66-.42-26.82-9.48-10.83-10.71-139.03-196.19-139.03-196.19l38.63-148.39-2.14-1.99s-26.14,11.82-47.48,22.02c-15.74,7.53-35.69,12.9-58.48,10.81C1054.62,66.5,759.31,0,759.31,0L207.72,345.35l21.41-78.17-3.76-2.49-199.6,54.54L0,425.64l3.76,2.49,178.47-66.64-50.72,185.22-74.68,31.81L5.72,765.12h108.98l31.15-110.71,48.89-17.29-32.39,127.99h108.98l43.36-170.42,117.2-41.45,267.3,48.11-5.6,163.76h95.98l37.33-136.33,44.44,6.71-35.5,129.62h108.98l42.34-154.58,57.36-45.71,74.97,10.95,139.02-130.74-29.98,110.04,123.23-27.22,35.4-139.62s-60.03,3.12-72.01,3.81"></path>
  </g>
</svg><style>@media (prefers-color-scheme: light) { :root { filter: none; } }
@media (prefers-color-scheme: dark) { :root { filter: none; } }
</style></svg>